<svg xmlns="http://www.w3.org/2000/svg" xmlns:xlink="http://www.w3.org/1999/xlink" x="0px" y="0px" viewBox="0 0 237.6 105.8" style="enable-background:new 0 0 237.6 105.8;" xml:space="preserve">
<style type="text/css">
	.st0{fill:#155780;}
	.st1{fill:#CE2A2B;}
	.st2{fill:#E3E5E6;}
	.st3{fill:#12284C;}
	.st4{fill:#202C4C;}
	.st5{fill:#FFFFFF;}
	.st6{fill:#D11F2D;}
	.st7{fill:none;stroke:#FFFFFF;stroke-miterlimit:10;}
	.st8{opacity:0.43;}
	.st9{fill:#071F42;}
	.st10{fill:none;stroke:#D11F2D;stroke-width:3;stroke-miterlimit:10;}
	.st11{opacity:0.95;fill:#202C4C;}
	.st12{fill:none;stroke:#E3E5E6;stroke-width:4.2454;stroke-linecap:square;stroke-miterlimit:10;}
	.st13{fill:url(#SVGID_3_);}
	.st14{fill:#F6F6F6;}
	.st15{fill:none;stroke:#12284C;stroke-width:1.0564;stroke-miterlimit:10;}
	.st16{fill:none;stroke:#E3E5E6;stroke-miterlimit:10;}
	.st17{fill:none;stroke:#FFFFFF;stroke-width:0.8071;stroke-miterlimit:10;}
	.st18{fill:url(#SVGID_16_);}
</style>
<g id="ADULTOS">
</g>
<g id="NI&#xD1;OS">
</g>
<g id="HOME">
	<g>
		<g>
			<g>
				<g>
					<g>
						<path class="st5" d="M70.9,71.1c0.3-0.8,0.6-1.7,0.8-2.4L60.5,57.4h12v-3H54.3L70.9,71.1z"></path>
						<path class="st5" d="M33.3,8c-1.1,0.1-2.1,0.3-3,0.5v18.9L16.2,13.1c-0.8,0.2-1.7,0.4-2.7,0.5l19.8,19.8V8z"></path>
						<path class="st5" d="M65,13.6c-0.9-0.2-1.8-0.3-2.7-0.5L48.1,27.3V8.4c-0.9-0.2-1.9-0.3-3-0.5v25.5L65,13.6z"></path>
						<path class="st5" d="M45.2,92.4c0.8-0.6,1.8-1.2,3-1.9v-21l13.3,13.3c0.6-0.5,1.3-0.9,1.8-1.4l-18.1-18V92.4z"></path>
						<path class="st5" d="M6.1,54.5v3h12.1L6.9,68.7c0.2,0.8,0.5,1.6,0.8,2.4l16.6-16.7H6.1z"></path>
						<polygon class="st5" points="72.5,27.7 72.5,23.8 54.3,41.9 72.5,41.9 72.5,39.6 60.5,39.6       "></polygon>
						<path class="st5" d="M15.3,81.4c0.6,0.5,1.2,0.9,1.8,1.4l13.3-13.3v21c1.1,0.7,2.1,1.3,3,1.9v-29L15.3,81.4z"></path>
						<polygon class="st5" points="6.1,23.7 6.1,27.5 18.2,39.6 6.1,39.6 6.1,41.9 24.3,41.9       "></polygon>
					</g>
					<path class="st5" d="M76.7,7.3c-9.1,0-13.7-1.8-18.1-3.5C54.2,2,49.1,0,39.3,0c-9.8,0-14.7,1.9-19.4,3.8       C15.5,5.5,11,7.3,1.8,7.3H0l0,57.2c0,0.2-0.2,4.3,1.8,9.5c1.8,4.8,5.9,11.5,15,16.5c17.6,9.6,19.6,12,21,13.7l1.4,1.6l1.4-1.6       c1.4-1.7,3.4-4,21-13.7c9.1-5,13.2-11.8,15.1-16.5c1.8-4.7,1.9-8.4,1.9-9.4V7.3H76.7z M39.2,3.7c9,0,13.5,1.8,18,3.5l0.2,0.1       c4.4,1.7,8.9,3.5,17.3,3.7l0,53.7c0,0.4,0.1,3.8-1.5,8c-3,7.7-8.9,12.2-13.3,14.6c-13.7,7.5-18.4,10.9-20.6,13       c-2.3-2.2-6.9-5.5-20.7-13C10.5,82.8,6.8,76.9,5.2,72.7c-1.7-4.3-1.6-7.7-1.6-8.1V11c8.5-0.2,13.1-2,17.6-3.8       C25.6,5.5,30.2,3.7,39.2,3.7z"></path>
				</g>
			</g>
		</g>
		<g>
			<g>
				<path class="st5" d="M93.6,45.9V23.8h14.5v3.8H97.9v5.2h8.7v3.8h-8.7v5.4h10.2v3.8H93.6z"></path>
				<path class="st5" d="M120.5,45.9v-9.8c0-2.2-1.4-2.9-2.7-2.9s-2.7,0.7-2.7,2.9v9.8h-4V29.8h3.9v1.5c1.1-1.1,2.5-1.7,4-1.7      c1.6,0,2.9,0.5,3.8,1.4c1.3,1.3,1.6,2.8,1.6,4.6v10.3H120.5z"></path>
				<path class="st5" d="M133.6,52c-2.5,0-4.2-0.5-5.9-2.1l2.5-2.5c0.9,0.9,1.8,1.2,3.2,1.2c2.4,0,3.3-1.7,3.3-3.3v-1.6      c-1.1,1.2-2.3,1.6-3.8,1.6s-2.9-0.5-3.8-1.4c-1.5-1.5-1.6-3.6-1.6-6.4s0.1-4.9,1.6-6.4c0.9-0.9,2.3-1.4,3.9-1.4      c1.7,0,2.8,0.5,3.9,1.7v-1.5h3.9v15.6C140.6,49.2,137.9,52,133.6,52z M134,33.2c-2.4,0-2.6,2-2.6,4.2c0,2.1,0.2,4.2,2.6,4.2      s2.7-2.1,2.7-4.2C136.6,35.2,136.3,33.2,134,33.2z"></path>
				<path class="st5" d="M148.8,45.9c-3.3,0-4.7-2.3-4.7-4.6V26.5c0-1.5,1.2-2.7,2.7-2.7h1.3V41c0,1,0.4,1.5,1.4,1.5h1.5v3.4H148.8z      "></path>
				<path class="st5" d="M153.4,45.9V29.8h4v16.1H153.4z"></path>
				<path class="st5" d="M166.3,46.1c-2.5,0-4.8-0.3-6.9-2.3l2.6-2.6c1.3,1.3,3.1,1.5,4.3,1.5c1.4,0,2.9-0.5,2.9-1.7      c0-0.8-0.4-1.4-1.7-1.5l-2.5-0.2c-2.9-0.3-4.7-1.5-4.7-4.5c0-3.3,2.9-5.1,6.2-5.1c2.5,0,4.6,0.4,6.2,1.9l-2.5,2.5      c-0.9-0.8-2.4-1.1-3.7-1.1c-1.6,0-2.3,0.7-2.3,1.5c0,0.6,0.2,1.3,1.7,1.4l2.5,0.2c3.2,0.3,4.8,2,4.8,4.7      C173.1,44.4,170.1,46.1,166.3,46.1z"></path>
				<path class="st5" d="M184.8,45.9v-9.9c0-2.1-1.4-2.9-2.6-2.9s-2.6,0.7-2.6,2.9v9.9h-4V26.5c0-1.5,1.2-2.7,2.7-2.7h1.3v7.4      c1.1-1.1,2.4-1.7,3.9-1.7c3.5,0,5.4,2.5,5.4,5.9v10.4H184.8z"></path>
			</g>
			<g>
				<path class="st5" d="M100.6,76.3c-2.4,0-4.3-0.8-5.9-2.4c-1-1-1.5-2.1-1.8-3.3c-0.2-1.2-0.4-3.1-0.4-5.5c0-2.4,0.1-4.2,0.4-5.5      c0.2-1.3,0.8-2.4,1.8-3.3c1.6-1.6,3.6-2.4,5.9-2.4c4.2,0,7.4,2.5,8.1,7h-4.4c-0.5-1.9-1.6-3.1-3.7-3.1c-1.2,0-2.1,0.4-2.8,1.1      c-0.9,1-1.1,2-1.1,6.2s0.2,5.3,1.1,6.2c0.7,0.8,1.6,1.1,2.8,1.1c2.1,0,3.3-1.2,3.7-3.1h4.4C107.9,73.8,104.8,76.3,100.6,76.3z"></path>
				<path class="st5" d="M122.3,74.3c-1,1.1-2.6,2-5,2c-2.4,0-4-0.9-5-2c-1.5-1.5-1.8-3.3-1.8-6.3c0-2.9,0.4-4.7,1.8-6.3      c1-1.1,2.6-2,5-2c2.4,0,4,0.9,5,2c1.5,1.5,1.8,3.3,1.8,6.3C124.1,71,123.8,72.8,122.3,74.3z M119.2,64.1      c-0.5-0.5-1.1-0.7-1.9-0.7c-0.8,0-1.4,0.2-1.9,0.7c-0.8,0.8-0.9,2.2-0.9,3.9c0,1.7,0.1,3.1,0.9,3.9c0.5,0.5,1.1,0.7,1.9,0.7      c0.8,0,1.4-0.2,1.9-0.7c0.8-0.8,0.9-2.3,0.9-3.9C120.1,66.4,120,65,119.2,64.1z"></path>
				<path class="st5" d="M136.4,76.1v-9.8c0-2.2-1.4-2.9-2.7-2.9s-2.7,0.7-2.7,2.9v9.8h-4V60h3.9v1.5c1.1-1.1,2.5-1.7,4-1.7      c1.6,0,2.9,0.5,3.8,1.4c1.3,1.3,1.6,2.8,1.6,4.6v10.3H136.4z"></path>
				<path class="st5" d="M153.3,76.1v-9.8c0-2.2-1.4-2.9-2.7-2.9s-2.7,0.7-2.7,2.9v9.8h-4V60h3.9v1.5c1.1-1.1,2.5-1.7,4-1.7      c1.6,0,2.9,0.5,3.8,1.4c1.3,1.3,1.6,2.8,1.6,4.6v10.3H153.3z"></path>
				<path class="st5" d="M163.9,69.3c0,2.1,1.3,3.6,3.5,3.6c1.8,0,2.6-0.5,3.7-1.5l2.4,2.4c-1.6,1.6-3.2,2.5-6.1,2.5      c-3.8,0-7.5-1.7-7.5-8.3c0-5.3,2.9-8.2,7-8.2c4.5,0,7,3.3,7,7.7v1.8H163.9z M169.6,64.8c-0.4-1-1.3-1.7-2.7-1.7      c-1.4,0-2.3,0.7-2.7,1.7c-0.2,0.6-0.3,1-0.4,1.7h6.1C170,65.8,169.9,65.4,169.6,64.8z"></path>
				<path class="st5" d="M183.2,76.3c-3.2,0-7.2-1.7-7.2-8.3c0-6.5,4-8.2,7.2-8.2c2.2,0,3.9,0.7,5.3,2.2l-2.7,2.7      c-0.8-0.9-1.5-1.3-2.6-1.3c-1,0-1.7,0.3-2.3,1.1c-0.6,0.8-0.9,1.9-0.9,3.6c0,1.7,0.3,2.8,0.9,3.6c0.6,0.7,1.3,1.1,2.3,1.1      c1.1,0,1.8-0.4,2.6-1.3l2.7,2.7C187.1,75.6,185.4,76.3,183.2,76.3z"></path>
				<path class="st5" d="M195.8,76.1c-3.3,0-4.7-2.3-4.7-4.6v-8h-1.7v-3.1h1.7v-2.1c0-1.5,1.2-2.7,2.7-2.7h1.3v4.8h2.9v3.1h-2.9v7.7      c0,0.9,0.4,1.5,1.4,1.5h1.5v3.4H195.8z"></path>
				<path class="st5" d="M219.4,74.3c-1,1.1-2.6,2-5,2c-2.4,0-4-0.9-5-2c-1.5-1.5-1.8-3.3-1.8-6.3c0-2.9,0.4-4.7,1.8-6.3      c1-1.1,2.6-2,5-2c2.4,0,4,0.9,5,2c1.5,1.5,1.8,3.3,1.8,6.3C221.3,71,220.9,72.8,219.4,74.3z M216.3,64.1      c-0.5-0.5-1.1-0.7-1.9-0.7c-0.8,0-1.4,0.2-1.9,0.7c-0.8,0.8-0.9,2.2-0.9,3.9c0,1.7,0.1,3.1,0.9,3.9c0.5,0.5,1.1,0.7,1.9,0.7      c0.8,0,1.4-0.2,1.9-0.7c0.8-0.8,0.9-2.3,0.9-3.9C217.2,66.4,217.2,65,216.3,64.1z"></path>
				<path class="st5" d="M233.6,76.1v-9.8c0-2.2-1.4-2.9-2.7-2.9s-2.7,0.7-2.7,2.9v9.8h-4V60h3.9v1.5c1.1-1.1,2.5-1.7,4-1.7      c1.6,0,2.9,0.5,3.8,1.4c1.3,1.3,1.6,2.8,1.6,4.6v10.3H233.6z"></path>
			</g>
			<circle class="st5" cx="155.4" cy="25.7" r="2"></circle>
			<path class="st5" d="M200.7,76.2V60h4v16.1H200.7z"></path>
			<circle class="st5" cx="202.7" cy="56" r="2"></circle>
		</g>
	</g>
</g>
</svg>
